<?xml version="1.0" encoding="UTF-8" standalone="no"?>
<svg
   xmlns:dc="http://purl.org/dc/elements/1.1/"
   xmlns:cc="http://creativecommons.org/ns#"
   xmlns:rdf="http://www.w3.org/1999/02/22-rdf-syntax-ns#"
   xmlns:svg="http://www.w3.org/2000/svg"
   xmlns="http://www.w3.org/2000/svg"
   xmlns:sodipodi="http://sodipodi.sourceforge.net/DTD/sodipodi-0.dtd"
   xmlns:inkscape="http://www.inkscape.org/namespaces/inkscape"
   version="1.1"
   x="0px"
   y="0px"
   viewBox="0 0 100 125"
   enable-background="new 0 0 100 100"
   xml:space="preserve"
   id="svg12"
   sodipodi:docname="logo.svg"
   inkscape:version="0.92.1 r15371"><metadata
     id="metadata18"><rdf:RDF><cc:Work
         rdf:about=""><dc:format>image/svg+xml</dc:format><dc:type
           rdf:resource="http://purl.org/dc/dcmitype/StillImage" /></cc:Work></rdf:RDF></metadata><defs
     id="defs16" /><sodipodi:namedview
     pagecolor="#ffffff"
     bordercolor="#666666"
     borderopacity="1"
     objecttolerance="10"
     gridtolerance="10"
     guidetolerance="10"
     inkscape:pageopacity="0"
     inkscape:pageshadow="2"
     inkscape:window-width="716"
     inkscape:window-height="480"
     id="namedview14"
     showgrid="false"
     inkscape:zoom="1.894057"
     inkscape:cx="128.79164"
     inkscape:cy="73.968553"
     inkscape:window-x="0"
     inkscape:window-y="0"
     inkscape:window-maximized="0"
     inkscape:current-layer="svg12"
     inkscape:object-paths="false"
     inkscape:snap-smooth-nodes="false"
     inkscape:snap-bbox="true"
     inkscape:bbox-nodes="false"
     inkscape:snap-bbox-edge-midpoints="false"
     inkscape:snap-bbox-midpoints="false"
     inkscape:snap-nodes="false" /><g
     id="g6"
     transform="translate(-0.52966102,13.771186)"
     style="fill:#000000;fill-opacity:0.89803922"><path
       d="M 98.137,79.776 C 97.418,78.003 92.963,77.628 90.235,79.387 81.294,85.153 78.557,84.076 74.686,80.554 68.92,75.306 70.838,70.818 71.318,66.432 72.223,58.138 69.18,40.648 54.475,29.636 48.542,25.193 43.072,24.842 36.864,18.56 37.306,16.679 37.859,13.871 36.594,12.922 34.78,11.561 31.605,12.338 30.889,13.119 27.262,11.306 25.516,11.376 25.3,10.756 24.495,8.433 22.433,5.483 21.894,5.483 c -0.628,0 -2.094,1.257 -2.402,2.905 -0.309,1.651 0.295,3.242 -0.038,3.553 -1.336,1.254 -3.332,2.666 -4.368,4.479 -1.037,1.814 -0.134,4.142 -1.296,5.701 -1.138,1.527 -3.143,2.35 -3.757,3.11 -0.414,0.512 -0.207,1.889 0.432,2.391 0.837,0.658 1.275,-0.16 3.112,1.136 1.836,1.296 3.773,0.992 5.138,1.137 0.706,0.074 0.667,2.221 0,3.368 -1.304,2.239 -3.762,1.296 -5.557,1 C 11.541,33.996 8.072,32.169 5.32,32.648 3.042,33.044 1.158,35.804 2.388,36.478 4.901,37.854 5.966,35.881 6.697,36 c 2.213,0.358 5.372,2.055 3.949,1.974 -4.188,-0.239 -7.261,3.832 -5.026,4.249 3.53,0.659 3.291,-1.257 5.863,-0.658 5.653,1.315 10.18,4.224 11.788,4.728 9.154,2.87 8.917,2.313 12.026,6.46 3.109,4.146 2.539,4.983 1.795,7.479 -0.838,2.812 -3.609,9.456 -2.573,13.343 1.036,3.888 2.167,6.787 2.139,8.083 -0.027,1.295 0.499,3.196 -1.943,3.691 -8.939,1.814 -8.569,3.398 -8.436,4.642 0.079,0.735 4.48,0.695 5.196,0.606 1.164,-0.147 4.903,-1.713 9.2,-3.822 3.586,-1.763 2.785,-1.037 3.951,-3.563 1.133,-2.457 2.655,-6.739 3.757,-7.904 1.943,10.041 6.658,9.563 6.932,12.568 0.194,2.137 -7.969,2.719 -8.616,4.793 -0.711,2.279 -0.258,2.331 3.888,2.331 3.11,0 10.301,-4.081 10.364,-5.247 0.204,-3.659 2.591,-10.139 3.758,-11.208 0.373,2.544 3.415,7.709 4.341,8.805 2.955,3.505 5.636,5.253 11.337,5.253 5.701,0 9.315,-1.52 11.92,-3.238 3.044,-2.01 6.93,-6.868 5.83,-9.589 z M 21.148,6.646 C 21.979,6.076 22.527,5.755 24.199,10.4 22.696,10.279 21,10.666 20.094,11.165 19.696,7.908 20.597,7.024 21.148,6.646 Z m -5.997,11.228 c 0.396,-1.438 0.193,-1.209 0.573,-1.436 0.595,-0.356 1.738,0.145 3.229,0.342 0.408,0.054 -2.086,2.388 -2.449,2.388 -0.249,0 -0.263,-0.784 -0.696,-1.173 -0.433,-0.39 -0.715,0.088 -0.657,-0.121 z m 3.556,11.457 c -2.95,-0.148 -3.563,0.015 -6.147,-1.827 -1.118,-0.58 1.218,-1.619 -0.549,-2.92 0.572,-0.433 1.454,-1.149 1.999,-1.774 0.11,0.07 -1.156,1.539 -1,1.774 0.2,0.3 3.551,-1.315 3.498,-1.05 -0.55,2.779 1.419,4.256 2.145,4.647 1.465,0.788 3.452,0.802 5.951,0.802 -0.25,0.462 -5.56,0.365 -5.897,0.348 z m 0.442,-6.652 0.111,-0.073 c 1.182,-0.775 2.149,-0.555 2.799,0.619 l 0.051,0.092 -0.049,0.093 c -0.284,0.535 -0.803,0.867 -1.354,0.867 -0.587,0 -1.297,-0.386 -1.529,-1.468 z m 9.663,5.953 c -1.924,-1.682 -3.071,-2.962 -3.708,-4.548 -0.699,-1.741 -2.851,-3.056 -4.487,-3.24 -0.999,-0.113 -2.874,0.241 -2.292,-0.407 0.583,-0.648 2.41,-3.882 2.657,-2.527 0.13,0.712 -0.436,1.623 -0.126,1.875 0.36,0.294 3.43,0.716 4.53,1.169 0.396,0.163 2.808,2.194 3.678,2.779 1.824,2.718 1.476,6.408 -0.252,4.899 z m 7.394,-10.463 c -0.862,2.3 -2.256,3.315 -2.806,2.667 -0.521,-0.616 0.152,-0.98 0.354,-1.238 1.937,-2.481 2.112,-4.923 1.61,-5.381 -1.419,-1.295 -5.636,1.621 -6.154,1.427 -0.519,-0.195 0.485,-0.868 1.046,-1.268 1.617,-1.154 4.13,-2.182 5.892,-0.767 0.633,0.508 0.671,2.923 0.058,4.56 z m 29.439,60.233 c 0.52,-0.647 3.281,-3.527 4.117,-5.558 0,2.073 1.012,3.688 1.399,4.211 -1.917,1.101 -3.53,3.61 -4.185,4.664 -0.582,-1.101 -1.331,-1.85 -1.331,-3.317 z m 5.516,10.055 c -0.971,-0.714 -1.982,-2.817 -2.501,-3.66 0.513,-2.728 2.505,-4.579 4.412,-4.928 1.058,0.749 1.555,1.896 1.749,2.308 -1.82,1.227 -3.466,5.152 -3.66,6.28 z m 8.721,3.425 c -1.227,-0.122 -3.909,-0.149 -4.845,-0.883 -0.844,-1.765 1.475,-7.046 3.121,-7.1 1.225,0.562 1.59,0.317 1.899,0.86 1.137,1.421 1.362,5.651 -0.175,7.123 z m 7.089,-0.785 c -1.555,0.453 -1.229,0.519 -2.462,0.453 0.713,-1.101 -0.129,-6.153 -0.776,-7.644 0.4,-0.52 1.295,-0.583 1.942,-0.777 1.841,1.458 3.369,5.636 1.296,7.968 z m 6.372,-3.547 c -0.454,0.519 -1.359,1.037 -2.073,1.426 -0.194,-3.046 -0.972,-5.117 -3.304,-7.386 0.647,-0.388 0.986,-0.622 1.555,-0.972 2.656,1.425 3.949,3.992 3.822,6.932 z"
       id="path2"
       inkscape:connector-curvature="0"
       style="fill:#000000;fill-opacity:0.89803922" /><path
       d="m 20.706,23.89 c 0.382,0 0.734,-0.212 0.958,-0.569 -0.518,-0.868 -1.178,-1.004 -2.076,-0.462 0.208,0.756 0.706,1.031 1.118,1.031 z"
       id="path4"
       inkscape:connector-curvature="0"
       style="fill:#000000;fill-opacity:0.89803922" /></g></svg>