<?xml version="1.0" encoding="UTF-8" standalone="no"?>
<!-- Generator: Adobe Illustrator 19.0.0, SVG Export Plug-In . SVG Version: 6.00 Build 0)  -->

<svg
   xmlns:dc="http://purl.org/dc/elements/1.1/"
   xmlns:cc="http://creativecommons.org/ns#"
   xmlns:rdf="http://www.w3.org/1999/02/22-rdf-syntax-ns#"
   xmlns:svg="http://www.w3.org/2000/svg"
   xmlns="http://www.w3.org/2000/svg"
   xmlns:sodipodi="http://sodipodi.sourceforge.net/DTD/sodipodi-0.dtd"
   xmlns:inkscape="http://www.inkscape.org/namespaces/inkscape"
   version="1.1"
   id="Capa_1"
   x="0px"
   y="0px"
   viewBox="0 0 512 512"
   style="enable-background:new 0 0 512 512;"
   xml:space="preserve"
   width="512px"
   height="512px"
   sodipodi:docname="search.svg"
   inkscape:version="0.92.1 r15371"><metadata
     id="metadata49"><rdf:RDF><cc:Work
         rdf:about=""><dc:format>image/svg+xml</dc:format><dc:type
           rdf:resource="http://purl.org/dc/dcmitype/StillImage" /></cc:Work></rdf:RDF></metadata><defs
     id="defs47" /><sodipodi:namedview
     pagecolor="#ffffff"
     bordercolor="#666666"
     borderopacity="1"
     objecttolerance="10"
     gridtolerance="10"
     guidetolerance="10"
     inkscape:pageopacity="0"
     inkscape:pageshadow="2"
     inkscape:window-width="716"
     inkscape:window-height="480"
     id="namedview45"
     showgrid="false"
     inkscape:zoom="0.4609375"
     inkscape:cx="256"
     inkscape:cy="256"
     inkscape:window-x="0"
     inkscape:window-y="0"
     inkscape:window-maximized="0"
     inkscape:current-layer="Capa_1" /><g
     id="g6"
     style="fill:#faed26;fill-opacity:0.89803922"><g
       id="g4"
       style="fill:#faed26;fill-opacity:0.89803922"><path
         d="M495.709,421.236L365.382,301.382c-9.309-8.145-23.273-8.145-32.582,1.164l-6.982,6.982l-19.782-19.782    c27.927-31.418,43.055-72.145,43.055-115.2C349.091,77.964,271.127,0,174.545,0S0,77.964,0,174.545    s77.964,174.545,174.545,174.545c30.255,0,60.509-8.146,87.273-23.273c5.818-3.491,6.982-10.473,4.655-16.291    c-3.491-5.818-10.473-6.982-16.291-4.655c-23.273,12.8-48.873,19.782-75.636,19.782c-83.782,1.164-151.273-66.327-151.273-150.109    S90.764,23.273,174.545,23.273s151.273,67.491,151.273,151.273c0,39.564-15.127,77.964-43.055,105.891    c-2.327,2.327-3.491,4.655-3.491,8.145v2.327c0,3.491,1.164,5.818,3.491,8.145l26.764,26.764l-6.982,6.982    c-9.309,9.309-9.309,23.273-1.164,32.582l119.855,130.327c9.309,10.473,23.273,16.291,38.4,16.291    C488.727,512,512,488.727,512,459.636C512,445.673,506.182,431.709,495.709,421.236z M459.636,488.727    c-8.145,0-16.291-3.491-20.945-9.309L318.836,349.091l30.255-30.255l130.327,119.855c5.818,5.818,9.309,12.8,9.309,20.945    C488.727,475.927,475.927,488.727,459.636,488.727z"
         fill="#a602c7"
         id="path2"
         style="fill:#faed26;fill-opacity:0.89803922" /></g></g><g
     id="g12"
     style="fill:#faed26;fill-opacity:0.89803922"><g
       id="g10"
       style="fill:#faed26;fill-opacity:0.89803922"><path
         d="M174.545,46.545c-70.982,0-128,57.018-128,128s57.018,128,128,128s128-57.018,128-128S245.527,46.545,174.545,46.545z     M174.545,279.273c-58.182,0-104.727-46.545-104.727-104.727S116.364,69.818,174.545,69.818s104.727,46.545,104.727,104.727    S232.727,279.273,174.545,279.273z"
         fill="#a602c7"
         id="path8"
         style="fill:#faed26;fill-opacity:0.89803922" /></g></g><g
     id="g14" /><g
     id="g16" /><g
     id="g18" /><g
     id="g20" /><g
     id="g22" /><g
     id="g24" /><g
     id="g26" /><g
     id="g28" /><g
     id="g30" /><g
     id="g32" /><g
     id="g34" /><g
     id="g36" /><g
     id="g38" /><g
     id="g40" /><g
     id="g42" /></svg>